<svg width="348" height="258" viewBox="0 0 348 258" fill="none" xmlns="http://www.w3.org/2000/svg">
<path fill-rule="evenodd" clip-rule="evenodd" d="M167.477 5.749C162.38 22.449 150.793 45.958 139.999 61.499C136.975 65.853 130.264 74.409 123.236 82.872L121.105 85.439L126.908 91.868C133.337 98.992 139.056 109.607 141.314 118.606C143.416 126.987 143.692 129.353 143.785 139.749L143.867 148.999H172.367H200.867V139.061C200.867 119.502 206.986 103.401 219.536 89.937L223.789 85.375L219.546 80.437C213.57 73.484 205.943 63.458 201.713 56.999C198.455 52.024 188.867 35.194 188.867 34.45C188.867 34.282 187.283 30.715 185.346 26.523C183.41 22.33 180.372 14.648 178.596 9.45101C175.46 0.274006 175.278 0.00100195 172.3 1.95314e-06C169.435 -0.000998047 169.116 0.380002 167.477 5.749ZM167.636 68.886C166.938 69.106 164.68 71.041 162.617 73.185C159.305 76.628 158.867 77.666 158.867 82.076C158.867 87.826 160.632 91.072 165.339 93.981C174.453 99.615 186.034 93.094 186.034 82.328C186.034 77.113 183.993 73.645 179.072 70.499L175.944 68.499L175.906 46.19C175.88 31.562 176.211 24.094 176.867 24.499C177.417 24.839 177.867 25.58 177.867 26.146C177.867 26.712 180.6 32.648 183.94 39.337C190.112 51.699 201.149 68.937 209.416 79.126L213.982 84.753L208.447 92.882C200.765 104.163 199.537 107.095 194.256 126.769C193.991 127.756 189.084 127.978 172.185 127.769L150.455 127.499L149.671 123.499C147.303 111.424 142.11 99.915 134.666 90.248C131.813 86.544 130.91 84.63 131.597 83.748C132.132 83.061 135.246 79.124 138.517 74.999C149.616 61.002 162.738 38.348 167.479 24.999C168.055 23.377 168.462 30.572 168.636 45.493C168.846 63.387 168.624 68.575 167.636 68.886ZM176.828 77.188C181.046 81.715 178.402 88.999 172.541 88.999C168.528 88.999 165.859 86.426 165.899 82.594C165.967 75.919 172.593 72.642 176.828 77.188ZM193.677 138.249L193.988 141.999H172.427H150.867V138.666C150.867 136.832 151.176 135.023 151.553 134.646C151.931 134.268 161.493 134.081 172.803 134.229L193.367 134.499L193.677 138.249ZM247.45 175.42C245.44 180.684 238.42 187.499 234.009 188.468C231.542 189.01 230.867 189.678 230.867 191.578C230.867 193.812 231.248 193.999 235.806 193.999H240.744L241.056 219.749C241.344 243.607 241.518 245.756 243.421 248.996C246.76 254.68 251.126 256.999 258.488 256.999C265.611 256.999 271.134 254.539 274.925 249.678C278.173 245.512 276.112 244.214 271.365 247.436C266.285 250.883 260.111 250.952 256.958 247.596C253.506 243.921 252.917 239.314 252.891 215.784L252.867 194.069L263.117 193.784C272.835 193.514 273.383 193.384 273.682 191.285C273.987 189.137 273.686 189.062 263.682 188.785L253.367 188.499L253.078 179.749C252.824 172.051 252.57 170.999 250.964 170.999C249.727 170.999 248.595 172.424 247.45 175.42ZM21.134 187.997C11.36 190.056 4.06103 196.014 3.21203 202.628C2.54403 207.827 4.39004 210.155 9.28804 210.294C14.066 210.429 15.867 208.222 15.867 202.231C15.867 198.717 16.448 197.264 18.79 194.922C21.334 192.378 22.449 191.999 27.389 191.999C32.415 191.999 33.388 192.345 35.889 195.022C38.119 197.41 38.854 199.365 39.385 204.325C40.557 215.268 40.805 214.942 28.886 218.14C8.57203 223.59 0.927027 229.233 0.0840272 239.397C-0.838973 250.53 5.88003 256.999 18.367 256.999C25.743 256.999 31.217 254.825 36.518 249.791L39.669 246.799L40.38 249.149C40.772 250.441 42.25 252.737 43.666 254.249C45.665 256.384 47.15 256.995 50.304 256.983C55.416 256.962 62.367 253.209 62.367 250.471C62.367 248.803 61.789 248.556 58.538 248.836C52.177 249.384 51.935 248.495 51.899 224.398C51.879 211.395 51.431 201.993 50.731 199.898C49.29 195.586 45.264 191.137 41.248 189.417C37.103 187.642 26.405 186.887 21.134 187.997ZM108.899 188.161C104.293 189.235 97.823 193.149 94.441 196.906C92 199.617 90.904 198.182 90.882 192.249C90.873 189.607 90.411 187.999 89.661 187.999C86.571 187.999 69.867 194.474 69.867 195.672C69.867 196.402 70.892 196.999 72.144 196.999C73.397 196.999 75.422 197.7 76.644 198.556C78.838 200.092 78.867 200.433 78.867 224.483V248.854L76.232 250.926C74.783 252.066 72.983 252.999 72.232 252.999C71.481 252.999 70.867 253.562 70.867 254.249C70.867 255.193 74.534 255.499 85.867 255.499C96.657 255.499 100.867 255.17 100.867 254.328C100.867 253.685 99.518 252.862 97.868 252.499C92.225 251.26 91.867 249.707 91.867 226.479V205.405L95.617 201.812C100.809 196.838 104.912 194.999 110.817 194.999C115.341 194.999 116.267 195.399 119.711 198.843C121.883 201.015 123.84 204.113 124.211 205.968C124.572 207.772 124.867 217.868 124.867 228.401C124.867 249.571 124.439 251.275 118.813 252.511C117.134 252.88 115.918 253.653 116.111 254.23C116.627 255.779 145.867 255.876 145.867 254.328C145.867 253.685 144.513 252.861 142.859 252.497C141.204 252.134 139.304 250.861 138.636 249.668C137.829 248.228 137.243 239.763 136.892 224.499C136.424 204.153 136.132 201.039 134.365 197.516C130.509 189.829 119.339 185.725 108.899 188.161ZM181.062 188.005C165.301 191.33 154.658 204.936 154.471 221.999C154.306 237.034 161.157 248.536 173.654 254.202C179.099 256.671 181.258 257.082 188.836 257.094C200.209 257.112 208.206 253.829 214.665 246.491C221.677 238.525 223.273 234.103 223.323 222.499C223.361 213.763 223.038 211.798 220.766 206.953C217.106 199.151 212.673 194.517 205.531 191.03C198.651 187.67 188.564 186.423 181.062 188.005ZM304.841 188.301C292.733 191.033 284.343 201.797 289.172 208.401C290.646 210.418 297.224 211.042 298.937 209.329C299.524 208.742 300.359 205.648 300.792 202.452C301.845 194.695 304.788 191.999 312.2 191.999C315.28 191.999 318.322 192.63 319.617 193.536C322.276 195.399 324.867 203.591 324.867 210.138V214.914L318.117 216.887C314.405 217.973 309.35 219.387 306.884 220.031C301.305 221.488 293.125 225.528 290.022 228.359C286.443 231.625 284.636 235.865 284.636 240.999C284.636 247.05 286.973 251.41 291.876 254.504C299.841 259.533 316.584 256.658 321.306 249.451C323.305 246.401 324.533 246.341 325.412 249.249C325.786 250.487 327.25 252.737 328.666 254.249C332.089 257.905 337.538 257.968 343.588 254.423C349.363 251.038 349.171 248.408 343.18 248.84C339.847 249.081 338.799 248.74 337.94 247.136C337.279 245.9 336.85 237.141 336.823 224.315C336.777 202.646 336.092 198.117 332.212 193.826C327.28 188.372 315.268 185.947 304.841 188.301ZM200.79 196.423C202.964 198.547 205.779 202.583 207.045 205.392C209.05 209.841 209.347 212.109 209.353 222.999C209.36 234.642 209.17 235.887 206.588 241.15C202.828 248.814 198.144 252.279 190.831 252.808C184.649 253.255 181.367 252.024 176.529 247.443C166.3 237.755 165.235 210.573 174.599 198.146C178.172 193.405 182.1 191.915 190.101 192.267C196.396 192.543 197.094 192.814 200.79 196.423ZM39.867 229.964C39.867 239.771 39.816 239.988 36.633 243.613C29.089 252.205 16.711 252.117 13.851 243.451C11.027 234.893 15.444 228.654 27.981 223.49C40.324 218.406 39.867 218.157 39.867 229.964ZM324.867 229.351C324.867 237.403 324.554 239.163 322.617 242.009C319.445 246.669 315.855 249.057 311.049 249.701C300.998 251.05 295.207 243.219 299.229 233.717C301.189 229.085 303.748 227.178 313.082 223.393C325.256 218.455 324.867 218.259 324.867 229.351Z" fill="#FDDDAB"/>
</svg>
